<svg id="visual" viewBox="0 0 960 400" width="960" height="400" xmlns="http://www.w3.org/2000/svg" xmlns:xlink="http://www.w3.org/1999/xlink" version="1.1"><rect x="0" y="0" width="960" height="400" fill="#001220"></rect><path d="M0 106L22.8 104.8C45.7 103.7 91.3 101.3 137 97.3C182.7 93.3 228.3 87.7 274 91.3C319.7 95 365.3 108 411.2 114.7C457 121.3 503 121.7 548.8 119C594.7 116.3 640.3 110.7 686 107.3C731.7 104 777.3 103 823 99.3C868.7 95.7 914.3 89.3 937.2 86.2L960 83L960 0L937.2 0C914.3 0 868.7 0 823 0C777.3 0 731.7 0 686 0C640.3 0 594.7 0 548.8 0C503 0 457 0 411.2 0C365.3 0 319.7 0 274 0C228.3 0 182.7 0 137 0C91.3 0 45.7 0 22.8 0L0 0Z" fill="#007bff"></path><path d="M0 74L22.8 71.5C45.7 69 91.3 64 137 65.5C182.7 67 228.3 75 274 75.5C319.7 76 365.3 69 411.2 71C457 73 503 84 548.8 87C594.7 90 640.3 85 686 81C731.7 77 777.3 74 823 74.5C868.7 75 914.3 79 937.2 81L960 83L960 0L937.2 0C914.3 0 868.7 0 823 0C777.3 0 731.7 0 686 0C640.3 0 594.7 0 548.8 0C503 0 457 0 411.2 0C365.3 0 319.7 0 274 0C228.3 0 182.7 0 137 0C91.3 0 45.7 0 22.8 0L0 0Z" fill="#005fc6"></path><path d="M0 40L22.8 43C45.7 46 91.3 52 137 57.3C182.7 62.7 228.3 67.3 274 64.8C319.7 62.3 365.3 52.7 411.2 50.3C457 48 503 53 548.8 56.8C594.7 60.7 640.3 63.3 686 61.2C731.7 59 777.3 52 823 52.2C868.7 52.3 914.3 59.7 937.2 63.3L960 67L960 0L937.2 0C914.3 0 868.7 0 823 0C777.3 0 731.7 0 686 0C640.3 0 594.7 0 548.8 0C503 0 457 0 411.2 0C365.3 0 319.7 0 274 0C228.3 0 182.7 0 137 0C91.3 0 45.7 0 22.8 0L0 0Z" fill="#00458f"></path><path d="M0 17L22.8 17.3C45.7 17.7 91.3 18.3 137 21C182.7 23.7 228.3 28.3 274 28.7C319.7 29 365.3 25 411.2 23.7C457 22.3 503 23.7 548.8 27.5C594.7 31.3 640.3 37.7 686 40.3C731.7 43 777.3 42 823 42C868.7 42 914.3 43 937.2 43.5L960 44L960 0L937.2 0C914.3 0 868.7 0 823 0C777.3 0 731.7 0 686 0C640.3 0 594.7 0 548.8 0C503 0 457 0 411.2 0C365.3 0 319.7 0 274 0C228.3 0 182.7 0 137 0C91.3 0 45.7 0 22.8 0L0 0Z" fill="#002c5c"></path></svg>